<?xml version="1.0" encoding="iso-8859-1"?><!-- Generator: Adobe Illustrator 23.0.1, SVG Export Plug-In . SVG Version: 6.00 Build 0)  --><svg fill="#FFFFFF" xmlns="http://www.w3.org/2000/svg" xmlns:xlink="http://www.w3.org/1999/xlink" viewBox="0 0 24 24" width="384px" height="384px"><path d="M12.032,10c-0.52-0.694-0.896-1.268-1.418-2.349C9.732,5.823,15.824,3.937,13.445,1c1.1,2.193-3.939,3.546-4.408,5.372C8.608,8.05,12.029,10,12.032,10z"/><path d="M13.005,6.546c-0.086,1.031,0.999,1.581,1.03,2.332C14.061,9.49,13.386,10,13.386,10s1.114-0.171,1.496-1.106c0.423-1.037-0.713-1.794-0.586-2.625C14.417,5.475,17,4,17,4S13.199,4.23,13.005,6.546z"/><path d="M17.204,10.453c0.901-0.202,1.662,0.372,1.662,1.034c0,1.488-2.066,2.897-2.066,2.897s3.2-0.381,3.2-2.828C20,9.939,18.355,9.602,17.204,10.453z"/><path d="M15.349,11.713c0,0,0.885-0.501,1.162-0.77c-2.553,0.528-8.224,0.375-8.224-0.084c0-0.423,1.878-0.858,1.878-0.858S6,9.942,6,11.141C6,12.395,11.454,12.483,15.349,11.713z"/><path d="M14.477,12.687c-2.461,0.835-6.997,0.567-5.654-0.551C8.171,12.136,7.2,12.671,7.2,13.185c0,1.034,4.903,1.83,8.533,0.32L14.477,12.687z"/><path d="M9.744,14.342c-0.896,0-1.477,0.622-1.477,1.078c0,1.411,5.347,1.46,7.467,0.025l-1.347-0.868C12.804,15.328,8.829,15.43,9.744,14.342z"/><path d="M18,17.673c0-0.498-0.542-0.734-0.738-0.847c1.143,2.864-11.59,2.668-11.59,0.977c0-0.385,0.674-0.777,1.532-0.598c0,0-0.314-0.374-0.729-0.448C4.772,16.456,4,17.248,4,17.878C4,20.81,18,20.668,18,17.673z"/><path d="M20,18.707c-2.201,2.229-8.259,3.582-13.867,2.207C11.767,23.275,19.973,21.442,20,18.707z"/></svg>